<mxfile host="app.diagrams.net" modified="2023-11-03T18:58:47.461Z" agent="Mozilla/5.0 (Windows NT 10.0; Win64; x64) AppleWebKit/537.36 (KHTML, like Gecko) Chrome/118.0.0.0 Safari/537.36" etag="MNPc7L9Fe-VLAaTaDzp-" version="22.0.8" type="github">
  <diagram name="DC - Ordenes MultiBodega" id="dP7JWLLXYjm7gVHI7CY_">
    <mxGraphModel dx="2074" dy="772" grid="1" gridSize="10" guides="1" tooltips="1" connect="1" arrows="1" fold="1" page="1" pageScale="1" pageWidth="827" pageHeight="1169" math="0" shadow="0">
      <root>
        <mxCell id="0" />
        <mxCell id="1" parent="0" />
      </root>
    </mxGraphModel>
  </diagram>
</mxfile>
